#N canvas 575 426 450 300 10;
#X obj 105 5 r GPIO-s;
#X obj 105 29 route A\$3;
#X obj 105 232 s sendGPIO;
#X obj 105 127 > 0.2;
#N canvas 535 547 450 300 precision 0;
#X obj 147 32 inlet;
#X obj 149 255 outlet;
#X obj 149 56 t a b;
#X obj 176 172 route 0 1 2 3 4 5;
#X msg 176 206 64;
#X msg 219 203 4096;
#X obj 149 229 / 4096;
#X obj 176 107 \$3;
#X connect 0 0 2 0;
#X connect 2 0 6 0;
#X connect 2 1 7 0;
#X connect 3 0 4 0;
#X connect 3 1 4 0;
#X connect 3 2 5 0;
#X connect 3 3 5 0;
#X connect 3 4 5 0;
#X connect 3 5 5 0;
#X connect 4 0 6 1;
#X connect 5 0 6 1;
#X connect 6 0 1 0;
#X connect 7 0 3 0;
#X restore 105 56 pd precision;
#X obj 105 207 list prepend \$2 ADC\$3;
#X obj 166 125 / 100;
#X obj 105 84 t a b;
#X obj 166 104 \$4;
#X obj 105 149 * 90;
#X connect 0 0 1 0;
#X connect 1 0 4 0;
#X connect 3 0 9 0;
#X connect 4 0 7 0;
#X connect 5 0 2 0;
#X connect 6 0 3 1;
#X connect 7 0 3 0;
#X connect 7 1 8 0;
#X connect 8 0 6 0;
#X connect 9 0 5 0;
