#N canvas 89 527 450 300 10;
#X obj 149 32 r GPIO-s;
#X obj 149 56 route A\$3;
#X obj 180 269 s sendGPIO;
#X obj 180 202 * 100;
#X obj 180 224 i;
#X obj 264 56 loadbang;
#X obj 264 76 \$4;
#X obj 308 126 bng 15 250 50 0 empty empty empty 17 7 0 10 -262144
-1 -1;
#N canvas 527 543 450 300 precision 0;
#X obj 149 32 inlet;
#X obj 149 255 outlet;
#X obj 149 56 t a b;
#X obj 176 172 route 0 1 2 3 4 5;
#X msg 176 206 64;
#X msg 219 203 4096;
#X floatatom 232 248 5 0 0 0 - - -, f 5;
#X obj 149 229 / 4096;
#X obj 176 103 \$3;
#X connect 0 0 2 0;
#X connect 2 0 7 0;
#X connect 2 1 8 0;
#X connect 3 0 4 0;
#X connect 3 1 4 0;
#X connect 3 2 5 0;
#X connect 3 3 5 0;
#X connect 3 4 5 0;
#X connect 3 5 5 0;
#X connect 4 0 7 1;
#X connect 5 0 6 0;
#X connect 5 0 7 1;
#X connect 7 0 1 0;
#X connect 8 0 3 0;
#X restore 149 83 pd precision;
#X obj 180 244 list prepend \$2 ADC\$3;
#X obj 132 159 lop~ 1;
#X obj 282 162 pyro2history;
#X obj 132 138 sig~;
#X obj 148 103 t a b;
#X obj 181 182 snapshot~;
#X connect 0 0 1 0;
#X connect 1 0 8 0;
#X connect 3 0 4 0;
#X connect 4 0 9 0;
#X connect 5 0 6 0;
#X connect 7 0 6 0;
#X connect 8 0 13 0;
#X connect 9 0 2 0;
#X connect 10 0 14 0;
#X connect 12 0 10 0;
#X connect 13 0 12 0;
#X connect 13 1 14 0;
#X connect 14 0 3 0;
