#N canvas 79 23 1280 686 10;
#X floatatom 41 219 0 0 0 0 - - -;
#X obj 104 490 *~;
#X obj 227 427 line~;
#X floatatom 259 244 0 0 0 0 - - -;
#X text 396 130 PITCH SHIFTER;
#X obj 227 401 pack 0 200;
#X obj 259 218 r window;
#X obj 41 36 r transpose;
#X obj 41 275 exp;
#X floatatom 41 301 6 0 0 0 - - -, f 6;
#X obj 41 391 /;
#X obj 168 321 * 0.001;
#X obj 336 497 line~;
#X obj 336 472 pack 0 200;
#X floatatom 336 421 0 0 0 0 - - -;
#X obj 336 395 r delay;
#X obj 104 516 +~;
#X obj 41 542 cos~;
#X obj 41 569 *~;
#X obj 41 598 +~;
#X obj 128 449 wrap~;
#X obj 273 492 *~;
#X obj 273 525 +~;
#X obj 210 552 cos~;
#X obj 210 579 *~;
#X msg 514 188 \; transpose 0 \; window 100 \; delay 0;
#X obj 514 162 loadbang;
#X obj 168 348 t b f;
#X floatatom 41 417 6 0 0 0 - - -, f 6;
#X obj 128 422 +~ 0.5;
#X obj 41 490 -~ 0.5;
#X obj 41 516 *~ 0.5;
#X obj 210 491 -~ 0.5;
#X obj 210 524 *~ 0.5;
#X obj 41 328 - 1;
#X obj 41 249 * 0.05776;
#X obj 41 354 * -1;
#X text 75 218 <-- transposition;
#X text 118 231 (halftones);
#X text 104 295 speed;
#X text 103 309 change;
#X text 303 243 <--window (msec);
#X text 76 384 tape head;
#X obj 41 448 phasor~;
#X obj 336 448 max 1.5;
#X text 339 354 delay;
#X text 336 372 (msec);
#X obj 259 271 max 1;
#X text 77 397 rotation freq;
#X obj 104 542 vd~ G09-del;
#X obj 273 554 vd~ G09-del;
#X obj 286 174 delwrite~ G09-del 5000;
#X obj 41 625 outlet~;
#X obj 286 143 inlet~;
#X obj 92 86 env~;
#X obj 92 107 dbtorms;
#X floatatom 243 103 5 0 0 0 - - -, f 5;
#X obj 92 129 * 2;
#X obj 92 150 - 1;
#X obj 211 149 *~ 0.7;
#X obj 460 385 env~;
#X obj 460 406 dbtorms;
#X obj 460 366 osc~ 0.01;
#X obj 460 428 * 1000;
#X obj 460 449 - 500;
#X obj 92 67 osc~ 0.01;
#X connect 0 0 35 0;
#X connect 1 0 16 0;
#X connect 2 0 1 1;
#X connect 2 0 21 1;
#X connect 3 0 47 0;
#X connect 5 0 2 0;
#X connect 6 0 3 0;
#X connect 7 0 0 0;
#X connect 8 0 9 0;
#X connect 9 0 34 0;
#X connect 10 0 28 0;
#X connect 11 0 27 0;
#X connect 12 0 16 1;
#X connect 12 0 22 1;
#X connect 13 0 12 0;
#X connect 14 0 44 0;
#X connect 15 0 14 0;
#X connect 16 0 49 0;
#X connect 17 0 18 0;
#X connect 18 0 19 0;
#X connect 19 0 52 0;
#X connect 19 0 59 0;
#X connect 20 0 21 0;
#X connect 20 0 32 0;
#X connect 21 0 22 0;
#X connect 22 0 50 0;
#X connect 23 0 24 0;
#X connect 24 0 19 1;
#X connect 26 0 25 0;
#X connect 27 0 10 0;
#X connect 27 1 10 1;
#X connect 28 0 43 0;
#X connect 29 0 20 0;
#X connect 30 0 31 0;
#X connect 31 0 17 0;
#X connect 32 0 33 0;
#X connect 33 0 23 0;
#X connect 34 0 36 0;
#X connect 35 0 8 0;
#X connect 36 0 10 0;
#X connect 43 0 1 0;
#X connect 43 0 30 0;
#X connect 43 0 29 0;
#X connect 44 0 13 0;
#X connect 47 0 11 0;
#X connect 47 0 5 0;
#X connect 49 0 18 1;
#X connect 50 0 24 1;
#X connect 53 0 51 0;
#X connect 54 0 55 0;
#X connect 55 0 57 0;
#X connect 56 0 59 1;
#X connect 57 0 58 0;
#X connect 58 0 0 0;
#X connect 59 0 51 0;
#X connect 60 0 61 0;
#X connect 61 0 63 0;
#X connect 62 0 60 0;
#X connect 63 0 64 0;
#X connect 64 0 14 0;
#X connect 65 0 54 0;
