#N canvas 1084 132 577 696 10;
#X obj 104 223 tabwrite \$0history;
#X obj 72 56 inlet;
#X obj 164 127 f;
#X obj 195 126 + 1;
#X msg 271 97 0;
#X obj 284 300 until;
#X obj 287 341 tabread \$0history;
#X obj 285 320 f;
#X obj 322 321 + 1;
#X obj 147 302 until;
#X obj 150 343 tabread \$0history;
#X obj 148 322 f;
#X obj 185 323 + 1;
#X obj 293 386 +;
#X obj 150 364 -;
#X obj 150 383 abs;
#X obj 292 408 t a a;
#X msg 424 313 0;
#X obj 150 402 +;
#X obj 150 422 t a a;
#X obj 136 568 outlet;
#X obj 135 546 f;
#X obj 228 126 mod 50;
#X obj 218 323 mod 50;
#X obj 353 321 mod 50;
#X obj 337 469 / 50;
#N canvas 1081 806 328 177 \$0history 0;
#N canvas 0 50 450 278 (subpatch) 0;
#X array \$0history 25 float 0;
#X coords 0 1 24 -1 300 140 1 0 0;
#X restore 13 24 graph;
#X restore 436 150 pd \$0history;
#X obj 375 69 inlet;
#X obj 381 240 s \$0history;
#X msg 381 198 resize \$1;
#X floatatom 375 169 5 0 0 0 - - -, f 5;
#X obj 472 183 loadbang;
#X obj 237 244 max 10;
#X msg 472 205 resize 10;
#X obj 237 265 t a a b a;
#X obj 237 224 f 50;
#X obj 150 463 - 0.1;
#X obj 150 482 max 0;
#X obj 70 98 t b b a b;
#X obj 150 442 / 7;
#X obj 150 524 line;
#X obj 150 504 pack 0 200;
#X connect 1 0 38 0;
#X connect 2 0 3 0;
#X connect 2 0 0 1;
#X connect 3 0 22 0;
#X connect 4 0 2 1;
#X connect 5 0 7 0;
#X connect 6 0 13 0;
#X connect 7 0 8 0;
#X connect 7 0 6 0;
#X connect 8 0 24 0;
#X connect 9 0 11 0;
#X connect 10 0 14 0;
#X connect 11 0 12 0;
#X connect 11 0 10 0;
#X connect 12 0 23 0;
#X connect 13 0 16 0;
#X connect 14 0 15 0;
#X connect 15 0 18 0;
#X connect 16 0 25 0;
#X connect 16 1 13 1;
#X connect 17 0 13 1;
#X connect 17 0 18 1;
#X connect 18 0 19 0;
#X connect 19 0 39 0;
#X connect 19 1 18 1;
#X connect 21 0 20 0;
#X connect 22 0 2 1;
#X connect 23 0 11 1;
#X connect 24 0 7 1;
#X connect 25 0 14 1;
#X connect 27 0 30 0;
#X connect 29 0 28 0;
#X connect 30 0 29 0;
#X connect 30 0 22 1;
#X connect 30 0 4 0;
#X connect 30 0 35 1;
#X connect 31 0 33 0;
#X connect 32 0 34 0;
#X connect 33 0 28 0;
#X connect 34 0 9 0;
#X connect 34 1 5 0;
#X connect 34 2 17 0;
#X connect 34 3 24 1;
#X connect 34 3 23 1;
#X connect 34 3 25 1;
#X connect 35 0 32 0;
#X connect 36 0 37 0;
#X connect 37 0 41 0;
#X connect 38 0 21 0;
#X connect 38 1 35 0;
#X connect 38 2 0 0;
#X connect 38 3 2 0;
#X connect 39 0 36 0;
#X connect 40 0 21 1;
#X connect 41 0 40 0;
