#N canvas 713 221 1093 721 10;
#N canvas 205 634 450 300 oneDetection 0;
#X obj 196 18 inlet;
#X obj 129 15 inlet;
#X obj 144 215 outlet;
#X msg 210 183 moderato;
#X msg 57 185 largo;
#X msg 125 183 adagio;
#X msg 284 183 allegro;
#X msg 353 181 presto;
#X obj 128 140 route 0 1 2 3 4;
#X msg 283 80 0;
#X msg 190 78 1;
#X obj 129 117 spigot 1;
#X obj 299 20 inlet;
#X connect 0 0 10 0;
#X connect 1 0 11 0;
#X connect 3 0 2 0;
#X connect 4 0 2 0;
#X connect 5 0 2 0;
#X connect 6 0 2 0;
#X connect 7 0 2 0;
#X connect 8 0 4 0;
#X connect 8 1 5 0;
#X connect 8 2 3 0;
#X connect 8 3 6 0;
#X connect 8 4 7 0;
#X connect 9 0 11 1;
#X connect 10 0 11 1;
#X connect 11 0 8 0;
#X connect 12 0 9 0;
#X restore 345 359 pd oneDetection;
#X obj 15 213 hsl 128 15 0 127 0 0 empty empty empty -2 -8 0 10 -262144
-1 -1 2200 1;
#X obj 455 247 sel 1;
#X obj 345 378 symbol;
#X obj 456 228 r \$1switch;
#X obj 447 544 readsf~;
#X obj 345 397 t a b;
#X obj 531 293 bng 15 250 50 0 empty empty empty 17 7 0 10 -262144
-1 -1;
#X obj 214 233 moses 30;
#X obj 260 249 moses 50;
#X obj 169 211 moses 15;
#X obj 306 268 moses 70;
#X obj 123 156 moses 10;
#X obj 695 472 switch~;
#X msg 600 403 1;
#X msg 689 368 0;
#N canvas 230 646 450 300 sql 0;
#X obj 178 18 inlet;
#X obj 73 244 lsql;
#X obj 73 177 list prepend sql;
#X obj 73 196 list trim;
#X msg 84 115 select filename from entries where (blacklist=0);
#X obj 73 270 outlet;
#X obj 185 164 loadbang;
#X msg 184 209 open \$1;
#X obj 186 187 list prepend \$5;
#X msg 61 70 select * from entries where env="\$2" and density="\$1"
and (blacklist=0) order by random() limit 1;
#X connect 0 0 9 0;
#X connect 1 0 5 0;
#X connect 2 0 3 0;
#X connect 3 0 1 0;
#X connect 4 0 2 0;
#X connect 6 0 8 0;
#X connect 7 0 1 0;
#X connect 8 0 7 0;
#X connect 9 0 2 0;
#X restore 345 471 pd sql;
#X obj 345 451 pack s s;
#X msg 540 168 stop \, bang;
#X obj 550 539 line~;
#X msg 550 460 1 50;
#X obj 403 662 *~;
#X obj 89 47 route \$2;
#X obj 403 682 throw~ \$4;
#N canvas 595 112 482 369 sql 0;
#X obj 178 18 inlet;
#X obj 73 244 lsql;
#X msg 84 115 select filename from entries where (blacklist=0);
#X obj 73 337 outlet;
#X obj 102 277 list split 5;
#X obj 142 334 outlet;
#X obj 108 175 r rs-sql-open;
#X obj 102 47 list append \$2;
#X msg 61 70 sql select largo:adagio:moderato:allegro:presto:environments
from readsound where preset=0 and title="\$1";
#X connect 0 0 7 0;
#X connect 1 0 4 0;
#X connect 4 0 3 0;
#X connect 4 1 5 0;
#X connect 6 0 1 0;
#X connect 7 0 8 0;
#X connect 8 0 1 0;
#X restore 714 77 pd sql;
#X obj 724 49 list prepend \$2;
#X obj 724 9 loadbang;
#X obj 558 75 bng 15 250 50 0 empty empty empty 17 7 0 10 -262144 -1
-1;
#N canvas 411 425 450 300 environments 0;
#X obj 112 23 inlet;
#X obj 142 258 outlet;
#X obj 236 144 list length;
#X obj 112 52 symbol2list;
#X obj 112 199 list split;
#X obj 160 171 f;
#X obj 192 172 + 1;
#X obj 221 173 mod;
#X obj 142 223 list split 1;
#X obj 353 26 metro 100;
#X obj 326 57 timer;
#X obj 112 107 t a b a b;
#X obj 365 125 bang;
#X obj 167 17 bng 15 250 50 0 empty empty empty 17 7 0 10 -262144 -1
-1;
#X obj 326 180 * 100;
#X obj 326 202 i;
#X obj 326 224 nbx 5 14 -1e+37 1e+37 0 0 empty empty empty 0 -8 0 10
-262144 -1 -1 21 256;
#X obj 326 77 / 60000;
#X obj 326 100 moses 1;
#N canvas 1 52 450 300 list-splat 0;
#X restore 295 263 pd list-splat;
#X obj 112 85 list-splat -1;
#X text 109 69 not working in daemon;
#X connect 0 0 3 0;
#X connect 2 0 7 1;
#X connect 3 0 11 0;
#X connect 4 1 8 0;
#X connect 5 0 6 0;
#X connect 5 0 4 1;
#X connect 6 0 7 0;
#X connect 7 0 5 1;
#X connect 8 0 1 0;
#X connect 9 0 10 1;
#X connect 10 0 17 0;
#X connect 11 0 4 0;
#X connect 11 1 5 0;
#X connect 11 2 2 0;
#X connect 11 3 9 0;
#X connect 11 3 10 0;
#X connect 12 0 3 0;
#X connect 13 0 3 0;
#X connect 14 0 15 0;
#X connect 15 0 16 0;
#X connect 17 0 18 0;
#X connect 18 0 14 0;
#X connect 18 1 12 0;
#X restore 735 212 pd environments;
#X obj 374 268 moses 100;
#X obj 169 135 f;
#X obj 214 189 f;
#X obj 259 208 f;
#X obj 305 224 f;
#X obj 350 243 f;
#N canvas 1 52 450 300 split 0;
#X obj 144 28 inlet;
#X obj 124 108 list split 1;
#X obj 158 129 list split 1;
#X obj 196 149 list split 1;
#X obj 230 170 list split 1;
#X obj 69 227 outlet;
#X obj 143 243 outlet;
#X obj 196 233 outlet;
#X obj 270 249 outlet;
#X obj 297 228 outlet;
#X connect 0 0 1 0;
#X connect 1 0 5 0;
#X connect 1 1 2 0;
#X connect 2 0 6 0;
#X connect 2 1 3 0;
#X connect 3 0 7 0;
#X connect 3 1 4 0;
#X connect 4 0 8 0;
#X connect 4 1 9 0;
#X restore 372 102 pd split;
#X floatatom 205 150 5 0 0 0 - - -, f 5;
#X obj 728 541 dbtorms;
#X floatatom 727 500 5 0 0 0 - - -, f 5;
#X floatatom 736 578 10 0 0 0 - - -, f 10;
#X obj 89 8 r sendGPIO;
#X obj 89 27 list trim;
#X obj 434 25 route \$2;
#X obj 434 5 r netreceive;
#X obj 435 46 route loadbang;
#X obj 299 641 snapshot~;
#X obj 299 560 metro 100;
#X obj 299 539 loadbang;
#X obj 299 661 list prepend \$2;
#X obj 299 681 s vu-meter;
#X obj 103 577 list prepend \$2;
#X obj 89 66 list split 2;
#X obj 89 135 list split 1;
#X obj 143 100 print;
#X obj 103 652 s sendAction;
#X msg 364 527 open \$5 \, 1;
#X msg 122 538 \$2 \$3 \$4;
#X obj 744 430 pipe 2000;
#X obj 620 490 pack f 2000;
#X obj 454 567 env~;
#X floatatom 454 589 5 0 0 0 - - -, f 5;
#X msg 93 307 0;
#X msg 161 305 1;
#X msg 246 305 2;
#X msg 320 305 3;
#X msg 389 303 4;
#X obj 568 108 t a b;
#X obj 621 207 t b b;
#X obj 585 569 print READSOUND_\$2;
#X obj 372 427 list prepend jungle;
#X obj 876 293 tgl 15 0 empty empty empty 17 7 0 10 -262144 -1 -1 0
1;
#X msg 901 188 disconnect;
#X obj 883 247 netsend -u;
#X obj 724 28 t b b;
#X msg 807 146 connect 192.168.0.22 3001 \, send connected;
#X msg 855 115 send sql \$1;
#X floatatom 28 111 5 0 0 0 - - -, f 5;
#X obj 540 192 del 3000;
#X msg 456 509 0;
#X obj 351 491 t a b;
#X connect 0 0 3 0;
#X connect 3 0 6 0;
#X connect 4 0 2 0;
#X connect 5 0 45 0;
#X connect 5 0 21 0;
#X connect 5 0 59 0;
#X connect 5 1 67 0;
#X connect 5 1 68 0;
#X connect 6 0 17 0;
#X connect 6 1 14 0;
#X connect 6 1 69 0;
#X connect 7 0 0 1;
#X connect 8 0 62 0;
#X connect 8 1 9 0;
#X connect 9 0 63 0;
#X connect 9 1 11 0;
#X connect 10 0 61 0;
#X connect 10 1 8 0;
#X connect 11 0 64 0;
#X connect 11 1 29 0;
#X connect 12 1 10 0;
#X connect 12 1 1 0;
#X connect 14 0 13 0;
#X connect 14 0 20 0;
#X connect 15 0 58 0;
#X connect 15 0 57 0;
#X connect 16 0 56 0;
#X connect 16 0 79 0;
#X connect 17 0 16 0;
#X connect 18 0 77 0;
#X connect 19 0 21 1;
#X connect 20 0 19 0;
#X connect 21 0 23 0;
#X connect 22 0 51 0;
#X connect 24 0 66 0;
#X connect 24 1 28 0;
#X connect 25 0 24 0;
#X connect 26 0 73 0;
#X connect 27 0 25 0;
#X connect 28 0 69 1;
#X connect 29 0 65 0;
#X connect 30 0 12 1;
#X connect 30 0 36 0;
#X connect 31 0 10 1;
#X connect 32 0 8 1;
#X connect 33 0 9 1;
#X connect 34 0 11 1;
#X connect 35 0 30 0;
#X connect 35 1 31 0;
#X connect 35 2 32 0;
#X connect 35 3 33 0;
#X connect 35 4 34 0;
#X connect 37 0 39 0;
#X connect 38 0 37 0;
#X connect 40 0 41 0;
#X connect 41 0 22 0;
#X connect 42 0 44 0;
#X connect 43 0 42 0;
#X connect 44 0 27 0;
#X connect 45 0 48 0;
#X connect 46 0 45 0;
#X connect 47 0 46 0;
#X connect 48 0 49 0;
#X connect 50 0 54 0;
#X connect 51 0 52 0;
#X connect 52 1 12 0;
#X connect 55 0 5 0;
#X connect 56 0 50 0;
#X connect 57 0 13 0;
#X connect 58 0 19 0;
#X connect 59 0 60 0;
#X connect 61 0 0 0;
#X connect 62 0 0 0;
#X connect 63 0 0 0;
#X connect 64 0 0 0;
#X connect 65 0 0 0;
#X connect 66 0 35 0;
#X connect 67 0 18 0;
#X connect 67 1 24 0;
#X connect 67 1 15 0;
#X connect 69 0 17 1;
#X connect 71 0 72 0;
#X connect 72 0 70 0;
#X connect 73 0 25 0;
#X connect 74 0 72 0;
#X connect 75 0 72 0;
#X connect 77 0 7 0;
#X connect 78 0 5 0;
#X connect 79 0 55 0;
#X connect 79 1 0 2;
