#N canvas 787 169 450 481 10;
#X obj 222 360 writesf~;
#N canvas 587 188 450 300 filename 0;
#X obj 113 144 pack f f f f f f f f f f;
#X obj 135 84 t b b;
#X obj 137 32 inlet;
#X obj 118 205 outlet;
#X msg 116 179 open ../sons/voix/voix-\$1\$2\$3\$4\$5\$6\$7\$8\$9\$10.wav
;
#X obj 241 102 zexy/time -----;
#X obj 121 108 zexy/date -----;
#X connect 0 0 4 0;
#X connect 1 0 6 0;
#X connect 1 1 5 0;
#X connect 2 0 1 0;
#X connect 4 0 3 0;
#X connect 5 0 0 6;
#X connect 5 1 0 7;
#X connect 5 2 0 8;
#X connect 5 3 0 9;
#X connect 6 0 0 0;
#X connect 6 1 0 1;
#X connect 6 2 0 2;
#X connect 6 3 0 3;
#X connect 6 4 0 4;
#X connect 6 5 0 5;
#X restore 360 262 pd filename;
#X msg 249 267 start;
#X obj 47 96 adc~;
#X obj 47 230 *~;
#X obj 141 214 line~;
#X obj 138 185 pack 0 200;
#X msg 269 141 1;
#X msg 141 151 0;
#X obj 268 112 t b b b;
#X obj 181 63 tgl 15 0 empty empty empty 17 7 0 10 -262144 -1 -1 0
1;
#X obj 181 86 sel 0;
#X obj 202 141 del 200;
#X msg 211 263 stop;
#X obj 48 362 throw~ mono1;
#X obj 48 323 pitchshiftmod;
#X obj 47 175 hip~ 100;
#X obj 375 208 switch~;
#X msg 324 111 1;
#X msg 293 183 0;
#X obj 151 315 *~ 1;
#X obj 130 362 throw~ mono2;
#N canvas 331 358 450 219 readvoice 0;
#X obj 142 206 throw~ mono1;
#X obj 222 206 throw~ mono2;
#X obj 141 98 list prepend;
#X obj 141 183 readsf~;
#X obj 141 77 inlet;
#X obj 218 73 inlet;
#X msg 142 133 \$1 \$2 \, start;
#X obj 296 153 outlet;
#X connect 2 0 6 0;
#X connect 3 0 0 0;
#X connect 3 0 1 0;
#X connect 3 1 7 0;
#X connect 4 0 2 0;
#X connect 5 0 2 1;
#X connect 6 0 3 0;
#X restore 269 241 pd readvoice;
#X obj 181 -35 r INTER1;
#X obj 181 -16 sel 1;
#X msg 181 4 1;
#X msg 256 22 0;
#X obj 181 43 change;
#X msg 256 -16 stop \, bang;
#X floatatom 115 82 5 0 0 0 - - -, f 5;
#X obj 256 3 del 5000;
#X obj 87 125 *~ 0.3;
#X connect 1 0 0 0;
#X connect 1 0 22 1;
#X connect 2 0 0 0;
#X connect 3 0 31 0;
#X connect 4 0 15 0;
#X connect 4 0 20 0;
#X connect 5 0 4 1;
#X connect 6 0 5 0;
#X connect 7 0 6 0;
#X connect 8 0 6 0;
#X connect 9 0 7 0;
#X connect 9 1 2 0;
#X connect 9 2 1 0;
#X connect 9 2 18 0;
#X connect 10 0 11 0;
#X connect 11 0 8 0;
#X connect 11 0 12 0;
#X connect 11 1 9 0;
#X connect 12 0 13 0;
#X connect 12 0 22 0;
#X connect 13 0 0 0;
#X connect 15 0 14 0;
#X connect 15 0 21 0;
#X connect 16 0 4 0;
#X connect 18 0 17 0;
#X connect 19 0 17 0;
#X connect 20 0 0 0;
#X connect 22 0 19 0;
#X connect 23 0 24 0;
#X connect 24 0 25 0;
#X connect 24 0 28 0;
#X connect 25 0 27 0;
#X connect 26 0 27 0;
#X connect 27 0 10 0;
#X connect 28 0 30 0;
#X connect 29 0 31 1;
#X connect 30 0 26 0;
#X connect 31 0 16 0;
